# xmcd
# 
# Track frame offsets:
#     150
#     20867
#     35431
#     53116
#     77314
#     90592
#     111802
#     134153
#     157270
#     178918
#     199392
#     216983
#     230829
#     245287
#     265062
#     284028
#     302758
#     323134
#     340722
# 
# Disc length: 4783
# 
# Revision: 3
# Processed by: cddbd v1.5.2PL0 Copyright (c) Steve Scherf et al.
# Submitted via: fre:ac v1.0.31
# 
DISCID=2212ad13
DTITLE=Eric Clapton - Forever Man Disc 1
DYEAR=2015
DGENRE=Rock/Pop
TTITLE0=Gotta Get Over
TTITLE1=I've Got A Rock'nRoll Heart
TTITLE2=Anyway The Wind Blows - with J.J.Cale
TTITLE3=My Father's Eyes
TTITLE4=Motherless Child
TTITLE5=Pretending
TTITLE6=Little Queen Of Spades
TTITLE7=Bad Love
TTITLE8=Behind The Mask
TTITLE9=Tears In Heaven
TTITLE10=Change The World
TTITLE11=Call Me The Breeze
TTITLE12=Forever Man
TTITLE13=Riding With The King - with B.B.King
TTITLE14=It's In The Way That You Use It
TTITLE15=Circus
TTITLE16=Got You On My Mind
TTITLE17=Travelin' Alone
TTITLE18=Revolution
EXTD=YEAR: 2015
EXTT0=
EXTT1=
EXTT2=
EXTT3=
EXTT4=
EXTT5=
EXTT6=
EXTT7=
EXTT8=
EXTT9=
EXTT10=
EXTT11=
EXTT12=
EXTT13=
EXTT14=
EXTT15=
EXTT16=
EXTT17=
EXTT18=
PLAYORDER=
